# 3ds Max Wavefront OBJ Exporter v0.97b - (c)2007 guruware
# File Created: 26.01.2013 21:22:33

mtllib Tube.mtl

#
# object Cylinder001
#

v  54.3707 0.0000 -100.0135
v  54.3707 -0.0000 -60.0135
v  53.7942 5.8527 -60.0135
v  53.7942 5.8527 -100.0135
v  52.0870 11.4805 -60.0135
v  52.0870 11.4805 -100.0135
v  49.3147 16.6671 -60.0135
v  49.3147 16.6671 -100.0135
v  45.5839 21.2132 -60.0135
v  45.5839 21.2132 -100.0135
v  41.0378 24.9441 -60.0135
v  41.0378 24.9441 -100.0135
v  35.8512 27.7164 -60.0135
v  35.8512 27.7164 -100.0135
v  30.2234 29.4236 -60.0135
v  30.2234 29.4236 -100.0135
v  24.3707 30.0000 -60.0135
v  24.3707 30.0000 -100.0135
v  18.5179 29.4236 -60.0135
v  18.5179 29.4236 -100.0135
v  12.8902 27.7164 -60.0135
v  12.8902 27.7164 -100.0135
v  7.7035 24.9441 -60.0135
v  7.7035 24.9441 -100.0135
v  3.1574 21.2132 -60.0135
v  3.1574 21.2132 -100.0135
v  -0.5734 16.6671 -60.0135
v  -0.5734 16.6671 -100.0135
v  -3.3457 11.4805 -60.0135
v  -3.3457 11.4805 -100.0135
v  -5.0529 5.8527 -60.0135
v  -5.0529 5.8527 -100.0135
v  -5.6294 -0.0000 -60.0135
v  -5.6294 -0.0000 -100.0135
v  -5.0529 -5.8527 -60.0135
v  -5.0529 -5.8527 -100.0135
v  -3.3457 -11.4805 -60.0135
v  -3.3457 -11.4805 -100.0135
v  -0.5734 -16.6671 -60.0135
v  -0.5734 -16.6671 -100.0135
v  3.1575 -21.2132 -60.0135
v  3.1575 -21.2132 -100.0135
v  7.7036 -24.9441 -60.0135
v  7.7036 -24.9441 -100.0135
v  12.8902 -27.7164 -60.0135
v  12.8902 -27.7164 -100.0135
v  18.5180 -29.4236 -60.0135
v  18.5180 -29.4236 -100.0135
v  24.3707 -30.0000 -60.0135
v  24.3707 -30.0000 -100.0135
v  30.2234 -29.4236 -60.0135
v  30.2234 -29.4236 -100.0135
v  35.8512 -27.7164 -60.0135
v  35.8512 -27.7164 -100.0135
v  41.0378 -24.9441 -60.0135
v  41.0378 -24.9441 -100.0135
v  45.5839 -21.2132 -60.0135
v  45.5839 -21.2132 -100.0135
v  49.3148 -16.6671 -60.0135
v  49.3148 -16.6671 -100.0135
v  52.0871 -11.4805 -60.0135
v  52.0871 -11.4805 -100.0135
v  53.7942 -5.8527 -60.0135
v  53.7942 -5.8527 -100.0135
v  54.3707 -0.0000 -20.0135
v  53.7942 5.8527 -20.0135
v  52.0870 11.4805 -20.0135
v  49.3147 16.6671 -20.0135
v  45.5839 21.2132 -20.0135
v  41.0378 24.9441 -20.0135
v  35.8512 27.7164 -20.0135
v  30.2234 29.4236 -20.0135
v  24.3707 30.0000 -20.0135
v  18.5179 29.4236 -20.0135
v  12.8902 27.7164 -20.0135
v  7.7035 24.9441 -20.0135
v  3.1574 21.2132 -20.0135
v  -0.5734 16.6671 -20.0135
v  -3.3457 11.4805 -20.0135
v  -5.0529 5.8527 -20.0135
v  -5.6294 -0.0000 -20.0135
v  -5.0529 -5.8527 -20.0135
v  -3.3457 -11.4805 -20.0135
v  -0.5734 -16.6671 -20.0135
v  3.1575 -21.2132 -20.0135
v  7.7036 -24.9441 -20.0135
v  12.8902 -27.7164 -20.0135
v  18.5180 -29.4236 -20.0135
v  24.3707 -30.0000 -20.0135
v  30.2234 -29.4236 -20.0135
v  35.8512 -27.7164 -20.0135
v  41.0378 -24.9441 -20.0135
v  45.5839 -21.2132 -20.0135
v  49.3148 -16.6671 -20.0135
v  52.0871 -11.4805 -20.0135
v  53.7942 -5.8527 -20.0135
v  54.3707 -0.0000 19.9865
v  53.7942 5.8527 19.9865
v  52.0870 11.4805 19.9865
v  49.3147 16.6671 19.9865
v  45.5839 21.2132 19.9865
v  41.0378 24.9441 19.9865
v  35.8512 27.7164 19.9865
v  30.2234 29.4236 19.9865
v  24.3707 30.0000 19.9865
v  18.5179 29.4236 19.9865
v  12.8902 27.7164 19.9865
v  7.7035 24.9441 19.9865
v  3.1574 21.2132 19.9865
v  -0.5734 16.6671 19.9865
v  -3.3457 11.4805 19.9865
v  -5.0529 5.8527 19.9865
v  -5.6294 -0.0000 19.9865
v  -5.0529 -5.8527 19.9865
v  -3.3457 -11.4805 19.9865
v  -0.5734 -16.6671 19.9865
v  3.1575 -21.2132 19.9865
v  7.7036 -24.9441 19.9865
v  12.8902 -27.7164 19.9865
v  18.5180 -29.4236 19.9865
v  24.3707 -30.0000 19.9865
v  30.2234 -29.4236 19.9865
v  35.8512 -27.7164 19.9865
v  41.0378 -24.9441 19.9865
v  45.5839 -21.2132 19.9865
v  49.3148 -16.6671 19.9865
v  52.0871 -11.4805 19.9865
v  53.7942 -5.8527 19.9865
v  54.3707 -0.0000 59.9865
v  53.7942 5.8527 59.9865
v  52.0870 11.4805 59.9865
v  49.3147 16.6671 59.9865
v  45.5839 21.2132 59.9865
v  41.0378 24.9441 59.9865
v  35.8512 27.7164 59.9865
v  30.2234 29.4235 59.9865
v  24.3707 30.0000 59.9865
v  18.5179 29.4236 59.9865
v  12.8902 27.7164 59.9865
v  7.7035 24.9441 59.9865
v  3.1574 21.2132 59.9865
v  -0.5734 16.6671 59.9865
v  -3.3457 11.4805 59.9865
v  -5.0529 5.8527 59.9865
v  -5.6294 -0.0000 59.9865
v  -5.0529 -5.8527 59.9865
v  -3.3457 -11.4805 59.9865
v  -0.5734 -16.6671 59.9865
v  3.1575 -21.2132 59.9865
v  7.7036 -24.9441 59.9865
v  12.8902 -27.7164 59.9865
v  18.5180 -29.4236 59.9865
v  24.3707 -30.0000 59.9865
v  30.2234 -29.4236 59.9865
v  35.8512 -27.7164 59.9865
v  41.0378 -24.9441 59.9865
v  45.5839 -21.2132 59.9865
v  49.3148 -16.6671 59.9865
v  52.0871 -11.4805 59.9865
v  53.7942 -5.8527 59.9865
v  54.3707 -0.0000 99.9865
v  53.7942 5.8527 99.9865
v  52.0870 11.4805 99.9865
v  49.3147 16.6671 99.9865
v  45.5839 21.2132 99.9865
v  41.0378 24.9441 99.9865
v  35.8512 27.7164 99.9865
v  30.2234 29.4235 99.9865
v  24.3707 30.0000 99.9865
v  18.5179 29.4235 99.9865
v  12.8902 27.7164 99.9865
v  7.7035 24.9441 99.9865
v  3.1574 21.2132 99.9865
v  -0.5734 16.6671 99.9865
v  -3.3457 11.4805 99.9865
v  -5.0529 5.8527 99.9865
v  -5.6294 -0.0000 99.9865
v  -5.0529 -5.8527 99.9865
v  -3.3457 -11.4805 99.9865
v  -0.5734 -16.6671 99.9865
v  3.1575 -21.2132 99.9865
v  7.7036 -24.9441 99.9865
v  12.8902 -27.7164 99.9865
v  18.5180 -29.4236 99.9865
v  24.3707 -30.0000 99.9865
v  30.2234 -29.4236 99.9865
v  35.8512 -27.7164 99.9865
v  41.0378 -24.9441 99.9865
v  45.5839 -21.2132 99.9865
v  49.3148 -16.6671 99.9865
v  52.0871 -11.4805 99.9865
v  53.7942 -5.8527 99.9865
# 192 vertices

vn -1.0000 -0.0000 -0.0000
vn -0.9808 -0.1951 -0.0000
vn -0.9239 -0.3827 -0.0000
vn -0.8315 -0.5556 -0.0000
vn -0.7071 -0.7071 -0.0000
vn -0.5556 -0.8315 -0.0000
vn -0.3827 -0.9239 -0.0000
vn -0.1951 -0.9808 -0.0000
vn -0.0000 -1.0000 -0.0000
vn 0.1951 -0.9808 -0.0000
vn 0.3827 -0.9239 -0.0000
vn 0.5556 -0.8315 -0.0000
vn 0.7071 -0.7071 -0.0000
vn 0.8315 -0.5556 -0.0000
vn 0.9239 -0.3827 -0.0000
vn 0.9808 -0.1951 -0.0000
vn 1.0000 0.0000 0.0000
vn 0.9808 0.1951 0.0000
vn 0.9239 0.3827 0.0000
vn 0.8315 0.5556 0.0000
vn 0.7071 0.7071 0.0000
vn 0.5556 0.8315 0.0000
vn 0.3827 0.9239 0.0000
vn 0.1951 0.9808 0.0000
vn -0.0000 1.0000 0.0000
vn -0.1951 0.9808 0.0000
vn -0.3827 0.9239 0.0000
vn -0.5556 0.8315 0.0000
vn -0.7071 0.7071 0.0000
vn -0.8315 0.5556 0.0000
vn -0.9239 0.3827 0.0000
vn -0.9808 0.1951 0.0000
vn 0.0000 -0.0000 1.0000
# 33 vertex normals

vt 0.0005 0.4964 0.0000
vt 0.2004 0.4964 0.0000
vt 0.2004 0.4001 0.0000
vt 0.0005 0.4001 0.0000
vt 0.2004 0.3074 0.0000
vt 0.0005 0.3074 0.0000
vt 0.2004 0.2220 0.0000
vt 0.0005 0.2220 0.0000
vt 0.2004 0.1472 0.0000
vt 0.0005 0.1472 0.0000
vt 0.2004 0.0857 0.0000
vt 0.0005 0.0857 0.0000
vt 0.2004 0.0401 0.0000
vt 0.0005 0.0401 0.0000
vt 0.2004 0.0120 0.0000
vt 0.0005 0.0120 0.0000
vt 0.2004 0.0025 0.0000
vt 0.0005 0.0025 0.0000
vt 0.2004 0.5928 0.0000
vt 0.0005 0.5928 0.0000
vt 0.2004 0.6855 0.0000
vt 0.0005 0.6855 0.0000
vt 0.2004 0.7709 0.0000
vt 0.0005 0.7709 0.0000
vt 0.2004 0.8457 0.0000
vt 0.0005 0.8457 0.0000
vt 0.2004 0.9072 0.0000
vt 0.0005 0.9072 0.0000
vt 0.2004 0.9528 0.0000
vt 0.0005 0.9528 0.0000
vt 0.2004 0.9809 0.0000
vt 0.0005 0.9809 0.0000
vt 0.2004 0.9904 0.0000
vt 0.0005 0.9904 0.0000
vt 0.4003 0.4964 0.0000
vt 0.4003 0.4001 0.0000
vt 0.4003 0.3074 0.0000
vt 0.4003 0.2220 0.0000
vt 0.4003 0.1472 0.0000
vt 0.4003 0.0857 0.0000
vt 0.4003 0.0401 0.0000
vt 0.4003 0.0120 0.0000
vt 0.4003 0.0025 0.0000
vt 0.4003 0.5928 0.0000
vt 0.4003 0.6855 0.0000
vt 0.4003 0.7709 0.0000
vt 0.4003 0.8457 0.0000
vt 0.4003 0.9072 0.0000
vt 0.4003 0.9528 0.0000
vt 0.4003 0.9809 0.0000
vt 0.4003 0.9904 0.0000
vt 0.6001 0.4964 0.0000
vt 0.6001 0.4001 0.0000
vt 0.6001 0.3074 0.0000
vt 0.6001 0.2220 0.0000
vt 0.6001 0.1472 0.0000
vt 0.6001 0.0857 0.0000
vt 0.6001 0.0401 0.0000
vt 0.6001 0.0120 0.0000
vt 0.6001 0.0025 0.0000
vt 0.6001 0.5928 0.0000
vt 0.6001 0.6855 0.0000
vt 0.6001 0.7709 0.0000
vt 0.6001 0.8457 0.0000
vt 0.6001 0.9072 0.0000
vt 0.6001 0.9528 0.0000
vt 0.6001 0.9809 0.0000
vt 0.6001 0.9904 0.0000
vt 0.8000 0.4964 0.0000
vt 0.8000 0.4001 0.0000
vt 0.8000 0.3074 0.0000
vt 0.8000 0.2220 0.0000
vt 0.8000 0.1472 0.0000
vt 0.8000 0.0857 0.0000
vt 0.8000 0.0401 0.0000
vt 0.8000 0.0120 0.0000
vt 0.8000 0.0025 0.0000
vt 0.8000 0.5928 0.0000
vt 0.8000 0.6855 0.0000
vt 0.8000 0.7709 0.0000
vt 0.8000 0.8457 0.0000
vt 0.8000 0.9072 0.0000
vt 0.8000 0.9528 0.0000
vt 0.8000 0.9809 0.0000
vt 0.8000 0.9904 0.0000
vt 0.9999 0.4964 0.0000
vt 0.9999 0.4001 0.0000
vt 0.9999 0.3074 0.0000
vt 0.9999 0.2220 0.0000
vt 0.9999 0.1472 0.0000
vt 0.9999 0.0857 0.0000
vt 0.9999 0.0401 0.0000
vt 0.9999 0.0120 0.0000
vt 0.9999 0.0025 0.0000
vt 0.9999 0.5928 0.0000
vt 0.9999 0.6855 0.0000
vt 0.9999 0.7709 0.0000
vt 0.9999 0.8457 0.0000
vt 0.9999 0.9072 0.0000
vt 0.9999 0.9528 0.0000
vt 0.9999 0.9809 0.0000
vt 0.9999 0.9904 0.0000
vt 0.8904 0.5000 -0.2500
vt 0.8829 0.5753 -0.2500
vt 0.8607 0.6477 -0.2500
vt 0.7760 0.7730 -0.2500
vt 0.8246 0.7145 -0.2500
vt 0.7169 0.8210 -0.2500
vt 0.6494 0.8566 -0.2500
vt 0.5000 0.8860 -0.2500
vt 0.5762 0.8786 -0.2500
vt 0.1096 0.5000 -0.2500
vt 0.4238 0.8786 -0.2500
vt 0.3506 0.8566 -0.2500
vt 0.2240 0.7730 -0.2500
vt 0.2831 0.8210 -0.2500
vt 0.1754 0.7145 -0.2500
vt 0.1393 0.6477 -0.2500
vt 0.1171 0.5753 -0.2500
vt 0.1171 0.4247 -0.2500
vt 0.1393 0.3523 -0.2500
vt 0.2240 0.2270 -0.2500
vt 0.1754 0.2855 -0.2500
vt 0.2831 0.1790 -0.2500
vt 0.3506 0.1434 -0.2500
vt 0.5000 0.1140 -0.2500
vt 0.4238 0.1214 -0.2500
vt 0.5762 0.1214 -0.2500
vt 0.6494 0.1434 -0.2500
vt 0.7760 0.2270 -0.2500
vt 0.7169 0.1790 -0.2500
vt 0.8607 0.3523 -0.2500
vt 0.8246 0.2855 -0.2500
vt 0.8829 0.4247 -0.2500
# 134 texture coords

g Cylinder001
usemtl Material__62
s 8
f 1/1/1 2/2/1 3/3/2 4/4/2 
f 4/4/2 3/3/2 5/5/3 6/6/3 
f 6/6/3 5/5/3 7/7/4 8/8/4 
f 8/8/4 7/7/4 9/9/5 10/10/5 
f 10/10/5 9/9/5 11/11/6 12/12/6 
f 12/12/6 11/11/6 13/13/7 14/14/7 
f 14/14/7 13/13/7 15/15/8 16/16/8 
f 16/16/8 15/15/8 17/17/9 18/18/9 
f 18/18/9 17/17/9 19/15/10 20/16/10 
f 20/16/10 19/15/10 21/13/11 22/14/11 
f 22/14/11 21/13/11 23/11/12 24/12/12 
f 24/12/12 23/11/12 25/9/13 26/10/13 
f 26/10/13 25/9/13 27/7/14 28/8/14 
f 28/8/14 27/7/14 29/5/15 30/6/15 
f 30/6/15 29/5/15 31/3/16 32/4/16 
f 32/4/16 31/3/16 33/2/17 34/1/17 
f 34/1/17 33/2/17 35/19/18 36/20/18 
f 36/20/18 35/19/18 37/21/19 38/22/19 
f 38/22/19 37/21/19 39/23/20 40/24/20 
f 40/24/20 39/23/20 41/25/21 42/26/21 
f 42/26/21 41/25/21 43/27/22 44/28/22 
f 44/28/22 43/27/22 45/29/23 46/30/23 
f 46/30/23 45/29/23 47/31/24 48/32/24 
f 48/32/24 47/31/24 49/33/25 50/34/25 
f 50/34/25 49/33/25 51/31/26 52/32/26 
f 52/32/26 51/31/26 53/29/27 54/30/27 
f 54/30/27 53/29/27 55/27/28 56/28/28 
f 56/28/28 55/27/28 57/25/29 58/26/29 
f 58/26/29 57/25/29 59/23/30 60/24/30 
f 60/24/30 59/23/30 61/21/31 62/22/31 
f 62/22/31 61/21/31 63/19/32 64/20/32 
f 64/20/32 63/19/32 2/2/1 1/1/1 
f 2/2/1 65/35/1 66/36/2 3/3/2 
f 3/3/2 66/36/2 67/37/3 5/5/3 
f 5/5/3 67/37/3 68/38/4 7/7/4 
f 7/7/4 68/38/4 69/39/5 9/9/5 
f 9/9/5 69/39/5 70/40/6 11/11/6 
f 11/11/6 70/40/6 71/41/7 13/13/7 
f 13/13/7 71/41/7 72/42/8 15/15/8 
f 15/15/8 72/42/8 73/43/9 17/17/9 
f 17/17/9 73/43/9 74/42/10 19/15/10 
f 19/15/10 74/42/10 75/41/11 21/13/11 
f 21/13/11 75/41/11 76/40/12 23/11/12 
f 23/11/12 76/40/12 77/39/13 25/9/13 
f 25/9/13 77/39/13 78/38/14 27/7/14 
f 27/7/14 78/38/14 79/37/15 29/5/15 
f 29/5/15 79/37/15 80/36/16 31/3/16 
f 31/3/16 80/36/16 81/35/17 33/2/17 
f 33/2/17 81/35/17 82/44/18 35/19/18 
f 35/19/18 82/44/18 83/45/19 37/21/19 
f 37/21/19 83/45/19 84/46/20 39/23/20 
f 39/23/20 84/46/20 85/47/21 41/25/21 
f 41/25/21 85/47/21 86/48/22 43/27/22 
f 43/27/22 86/48/22 87/49/23 45/29/23 
f 45/29/23 87/49/23 88/50/24 47/31/24 
f 47/31/24 88/50/24 89/51/25 49/33/25 
f 49/33/25 89/51/25 90/50/26 51/31/26 
f 51/31/26 90/50/26 91/49/27 53/29/27 
f 53/29/27 91/49/27 92/48/28 55/27/28 
f 55/27/28 92/48/28 93/47/29 57/25/29 
f 57/25/29 93/47/29 94/46/30 59/23/30 
f 59/23/30 94/46/30 95/45/31 61/21/31 
f 61/21/31 95/45/31 96/44/32 63/19/32 
f 63/19/32 96/44/32 65/35/1 2/2/1 
f 65/35/1 97/52/1 98/53/2 66/36/2 
f 66/36/2 98/53/2 99/54/3 67/37/3 
f 67/37/3 99/54/3 100/55/4 68/38/4 
f 68/38/4 100/55/4 101/56/5 69/39/5 
f 69/39/5 101/56/5 102/57/6 70/40/6 
f 70/40/6 102/57/6 103/58/7 71/41/7 
f 71/41/7 103/58/7 104/59/8 72/42/8 
f 72/42/8 104/59/8 105/60/9 73/43/9 
f 73/43/9 105/60/9 106/59/10 74/42/10 
f 74/42/10 106/59/10 107/58/11 75/41/11 
f 75/41/11 107/58/11 108/57/12 76/40/12 
f 76/40/12 108/57/12 109/56/13 77/39/13 
f 77/39/13 109/56/13 110/55/14 78/38/14 
f 78/38/14 110/55/14 111/54/15 79/37/15 
f 79/37/15 111/54/15 112/53/16 80/36/16 
f 80/36/16 112/53/16 113/52/17 81/35/17 
f 81/35/17 113/52/17 114/61/18 82/44/18 
f 82/44/18 114/61/18 115/62/19 83/45/19 
f 83/45/19 115/62/19 116/63/20 84/46/20 
f 84/46/20 116/63/20 117/64/21 85/47/21 
f 85/47/21 117/64/21 118/65/22 86/48/22 
f 86/48/22 118/65/22 119/66/23 87/49/23 
f 87/49/23 119/66/23 120/67/24 88/50/24 
f 88/50/24 120/67/24 121/68/25 89/51/25 
f 89/51/25 121/68/25 122/67/26 90/50/26 
f 90/50/26 122/67/26 123/66/27 91/49/27 
f 91/49/27 123/66/27 124/65/28 92/48/28 
f 92/48/28 124/65/28 125/64/29 93/47/29 
f 93/47/29 125/64/29 126/63/30 94/46/30 
f 94/46/30 126/63/30 127/62/31 95/45/31 
f 95/45/31 127/62/31 128/61/32 96/44/32 
f 96/44/32 128/61/32 97/52/1 65/35/1 
f 97/52/1 129/69/1 130/70/2 98/53/2 
f 98/53/2 130/70/2 131/71/3 99/54/3 
f 99/54/3 131/71/3 132/72/4 100/55/4 
f 100/55/4 132/72/4 133/73/5 101/56/5 
f 101/56/5 133/73/5 134/74/6 102/57/6 
f 102/57/6 134/74/6 135/75/7 103/58/7 
f 103/58/7 135/75/7 136/76/8 104/59/8 
f 104/59/8 136/76/8 137/77/9 105/60/9 
f 105/60/9 137/77/9 138/76/10 106/59/10 
f 106/59/10 138/76/10 139/75/11 107/58/11 
f 107/58/11 139/75/11 140/74/12 108/57/12 
f 108/57/12 140/74/12 141/73/13 109/56/13 
f 109/56/13 141/73/13 142/72/14 110/55/14 
f 110/55/14 142/72/14 143/71/15 111/54/15 
f 111/54/15 143/71/15 144/70/16 112/53/16 
f 112/53/16 144/70/16 145/69/17 113/52/17 
f 113/52/17 145/69/17 146/78/18 114/61/18 
f 114/61/18 146/78/18 147/79/19 115/62/19 
f 115/62/19 147/79/19 148/80/20 116/63/20 
f 116/63/20 148/80/20 149/81/21 117/64/21 
f 117/64/21 149/81/21 150/82/22 118/65/22 
f 118/65/22 150/82/22 151/83/23 119/66/23 
f 119/66/23 151/83/23 152/84/24 120/67/24 
f 120/67/24 152/84/24 153/85/25 121/68/25 
f 121/68/25 153/85/25 154/84/26 122/67/26 
f 122/67/26 154/84/26 155/83/27 123/66/27 
f 123/66/27 155/83/27 156/82/28 124/65/28 
f 124/65/28 156/82/28 157/81/29 125/64/29 
f 125/64/29 157/81/29 158/80/30 126/63/30 
f 126/63/30 158/80/30 159/79/31 127/62/31 
f 127/62/31 159/79/31 160/78/32 128/61/32 
f 128/61/32 160/78/32 129/69/1 97/52/1 
f 129/69/1 161/86/1 162/87/2 130/70/2 
f 130/70/2 162/87/2 163/88/3 131/71/3 
f 131/71/3 163/88/3 164/89/4 132/72/4 
f 132/72/4 164/89/4 165/90/5 133/73/5 
f 133/73/5 165/90/5 166/91/6 134/74/6 
f 134/74/6 166/91/6 167/92/7 135/75/7 
f 135/75/7 167/92/7 168/93/8 136/76/8 
f 136/76/8 168/93/8 169/94/9 137/77/9 
f 137/77/9 169/94/9 170/93/10 138/76/10 
f 138/76/10 170/93/10 171/92/11 139/75/11 
f 139/75/11 171/92/11 172/91/12 140/74/12 
f 140/74/12 172/91/12 173/90/13 141/73/13 
f 141/73/13 173/90/13 174/89/14 142/72/14 
f 142/72/14 174/89/14 175/88/15 143/71/15 
f 143/71/15 175/88/15 176/87/16 144/70/16 
f 144/70/16 176/87/16 177/86/17 145/69/17 
f 145/69/17 177/86/17 178/95/18 146/78/18 
f 146/78/18 178/95/18 179/96/19 147/79/19 
f 147/79/19 179/96/19 180/97/20 148/80/20 
f 148/80/20 180/97/20 181/98/21 149/81/21 
f 149/81/21 181/98/21 182/99/22 150/82/22 
f 150/82/22 182/99/22 183/100/23 151/83/23 
f 151/83/23 183/100/23 184/101/24 152/84/24 
f 152/84/24 184/101/24 185/102/25 153/85/25 
f 153/85/25 185/102/25 186/101/26 154/84/26 
f 154/84/26 186/101/26 187/100/27 155/83/27 
f 155/83/27 187/100/27 188/99/28 156/82/28 
f 156/82/28 188/99/28 189/98/29 157/81/29 
f 157/81/29 189/98/29 190/97/30 158/80/30 
f 158/80/30 190/97/30 191/96/31 159/79/31 
f 159/79/31 191/96/31 192/95/32 160/78/32 
f 160/78/32 192/95/32 161/86/1 129/69/1 
usemtl Material__126
s 1
f 1/103/33 4/104/33 6/105/33 10/106/33 
f 6/105/33 8/107/33 10/106/33 
f 10/106/33 12/108/33 14/109/33 18/110/33 
f 14/109/33 16/111/33 18/110/33 
f 1/103/33 10/106/33 18/110/33 34/112/33 
f 18/110/33 20/113/33 22/114/33 26/115/33 
f 22/114/33 24/116/33 26/115/33 
f 26/115/33 28/117/33 30/118/33 34/112/33 
f 30/118/33 32/119/33 34/112/33 
f 18/110/33 26/115/33 34/112/33 
f 34/112/33 36/120/33 38/121/33 42/122/33 
f 38/121/33 40/123/33 42/122/33 
f 42/122/33 44/124/33 46/125/33 50/126/33 
f 46/125/33 48/127/33 50/126/33 
f 34/112/33 42/122/33 50/126/33 1/103/33 
f 50/126/33 52/128/33 54/129/33 58/130/33 
f 54/129/33 56/131/33 58/130/33 
f 1/103/33 50/126/33 58/130/33 62/132/33 
f 58/130/33 60/133/33 62/132/33 
f 1/103/33 62/132/33 64/134/33 
# 170 polygons - 10 triangles

